<?xml version="1.0" ?><!DOCTYPE svg  PUBLIC '-//W3C//DTD SVG 1.1//EN'  'http://www.w3.org/Graphics/SVG/1.1/DTD/svg11.dtd'><svg enable-background="new 0 0 512 512" height="512px" id="Layer_1" version="1.1" viewBox="0 0 512 512" width="512px" xml:space="preserve" xmlns="http://www.w3.org/2000/svg" xmlns:xlink="http://www.w3.org/1999/xlink"><g><path d="M437.012,74.963C390.66,28.765,326.729,0,255.997,0S121.337,28.765,74.985,74.963C28.633,121.305,0,185.355,0,256.073   c0,70.566,28.633,134.625,74.985,180.959C121.337,483.232,185.266,512,255.997,512s134.663-28.768,181.015-74.968   C483.363,390.698,512,326.64,512,256.073C512,185.355,483.363,121.305,437.012,74.963z"/><path clip-rule="evenodd" d="M384.137,320.266v-0.281h-0.282c0,0,0,0,0-0.141v0.141   c-3.262-2.127-6.382-2.412-8.36-2.978h-0.142c-13.611-4.394-25.233-13.61-33.877-24.946c-4.821-6.372-9.077-13.176-11.915-20.404   l0,0c-1.131-3.258-1.131-6.801,0.435-8.787h0.283c2.402-3.396,6.8-5.807,11.622-7.651l0,0c5.387-1.699,11.051-3.965,15.873-8.073   l0,0c0.989-0.568,1.842-1.56,2.413-2.978c0-0.285,0.282-0.707,0.424-1.136c0.282-1.13,0.282-2.69-0.424-4.247l0,0   c-1.282-2.834-3.686-4.111-5.393-5.244l0,0c-3.114-1.704-6.659-1.704-9.633-0.853l0,0c-3.261,1.133-5.957,2.274-8.365,2.413   c-0.142,0-0.142,0.283-0.142,0.283c-3.549,0.421-7.094,0.568-9.638-0.283c0-0.427,0-1.28-0.288-2.127l0,0   c0-5.671,0.43-11.622,0.43-17.999l0,0c0.282-9.353,0.706-18.99-0.571-28.623v-0.285c-3.114-16.298-13.605-30.324-26.935-39.821   c-9.633-6.663-21.255-10.627-33.028-11.478l0,0c-3.968-0.427-7.931-0.712-11.899-0.712c-15.736,0.285-32.18,4.396-44.797,14.458   c-9.638,7.367-17.291,17.287-21.972,28.485c0,0,0,0,0,0.139c-4.533,11.336-4.109,23.667-3.402,34.862l0,0   c0.142,7.793,0.994,15.447,0.429,22.963c0,0.139,0,0.139-0.287,0.421c-3.539,0.568-7.371,0.421-11.193-0.283c0,0,0,0-0.146,0   c-2.69-0.427-5.24-1.56-8.502-2.413c0,0,0,0-0.282,0c-2.979-0.851-6.099,0-8.366,1.842h-0.141c0,0.144,0,0.144,0,0.144   c-1.982,1.277-4.676,3.258-4.816,7.084c0,0.144,0,0.424,0.141,0.565h0.142c0.424,2.269,1.701,3.687,2.835,4.676   c0.989,0.994,2.125,1.704,2.977,2.127c0,0.285,0,0.285,0,0.285c5.952,3.826,12.328,5.386,17.721,7.652l0,0   c3.968,1.701,7.225,4.255,7.937,7.652c1.131,4.113-0.712,8.928-3.12,13.463l0,0c-6.094,12.328-15.449,22.961-26.933,30.893   c-5.813,3.967-12.619,6.945-19.702,8.928h-0.144c-1.558,0.707-5.103,0.99-7.086,4.25c-0.142,0.145-0.427,0.428-0.427,0.852   c-0.563,1.982,0,4.11,1.136,5.385c0.851,1.131,1.986,1.843,3.115,2.41l0,0c5.813,3.541,12.476,4.82,18.286,6.372l0,0   c4.397,1.141,8.365,1.564,11.488,2.837c0.142,0.285,0.565,1.277,1.272,3.122c1.131,3.255,1.56,7.223,2.832,11.192   c0.288,0.994,1.277,1.842,2.413,2.125c2.691,0.711,4.109-0.283,4.393-0.283c0,0,0.142,0,0.142-0.144   c10.062-1.555,19.987-3.114,28.913-0.848l0,0c9.644,2.407,17.721,8.931,27.223,14.597l0,0c6.089,3.965,13.318,7.649,21.542,7.937   l0,0c6.24,0.424,12.334,0,18.428-0.429l0,0c5.246-0.424,10.063-2.264,14.46-4.813l0.277-0.288   c9.784-5.383,18.297-12.187,27.93-16.441l0,0c3.12-0.989,7.088-0.989,11.344-1.27l0,0c7.932-0.144,15.873,0.28,23.668,1.27   c0.283,0,0.712,0,0.854,0c1.131-0.137,2.262-0.848,2.691-1.413c0.56-0.704,0.56-1.416,0.853-1.843c0.283-0.565,0.419-0.989,0-0.427   c0.283-0.139,0.283-0.421,0.419-0.563c1.277-4.822,2.272-9.07,4.397-11.624c1.131-1.131,2.838-1.555,4.958-1.555   c0.142,0,0.283,0,0.57,0c6.664-0.853,12.899-3.266,18.711-5.244c0-0.282,0-0.282,0.282-0.282c1.984-0.854,5.246-1.986,7.376-4.964   c0,0,0,0,0.278,0h-0.278C387.54,325.229,386.691,321.827,384.137,320.266L384.137,320.266z" fill="#FFFFFF" fill-rule="evenodd"/></g></svg>